<mxfile host="app.diagrams.net" modified="2023-11-02T16:21:01.100Z" agent="Mozilla/5.0 (X11; Ubuntu; Linux x86_64; rv:109.0) Gecko/20100101 Firefox/118.0" etag="sTueeKMCER5PhHXjFxAH" version="22.0.8" type="device">
  <diagram name="Page-1" id="0bwvGjNvdEV0iaKranLk">
    <mxGraphModel dx="2072" dy="2815" grid="1" gridSize="10" guides="1" tooltips="1" connect="1" arrows="1" fold="1" page="1" pageScale="1" pageWidth="850" pageHeight="1100" math="0" shadow="0">
      <root>
        <mxCell id="0" />
        <mxCell id="1" parent="0" />
        <mxCell id="JKWGzGi_94vPlRpi4u7l-10" style="edgeStyle=orthogonalEdgeStyle;rounded=0;orthogonalLoop=1;jettySize=auto;html=1;exitX=0.5;exitY=1;exitDx=0;exitDy=0;entryX=0.5;entryY=0;entryDx=0;entryDy=0;" edge="1" parent="1" source="JKWGzGi_94vPlRpi4u7l-11">
          <mxGeometry relative="1" as="geometry">
            <mxPoint x="-522.5" y="-562.55" as="targetPoint" />
          </mxGeometry>
        </mxCell>
        <mxCell id="JKWGzGi_94vPlRpi4u7l-11" value="GPS Time" style="whiteSpace=wrap;html=1;aspect=fixed;" vertex="1" parent="1">
          <mxGeometry x="-550" y="-682.55" width="55" height="55" as="geometry" />
        </mxCell>
        <mxCell id="JKWGzGi_94vPlRpi4u7l-12" style="edgeStyle=orthogonalEdgeStyle;rounded=0;orthogonalLoop=1;jettySize=auto;html=1;exitX=0.5;exitY=1;exitDx=0;exitDy=0;entryX=0.5;entryY=0;entryDx=0;entryDy=0;" edge="1" parent="1" source="JKWGzGi_94vPlRpi4u7l-13" target="JKWGzGi_94vPlRpi4u7l-20">
          <mxGeometry relative="1" as="geometry">
            <mxPoint x="-522" y="-462.54999999999995" as="targetPoint" />
          </mxGeometry>
        </mxCell>
        <mxCell id="JKWGzGi_94vPlRpi4u7l-13" value="" style="ellipse;whiteSpace=wrap;html=1;aspect=fixed;" vertex="1" parent="1">
          <mxGeometry x="-537.5" y="-562.55" width="30" height="30" as="geometry" />
        </mxCell>
        <mxCell id="JKWGzGi_94vPlRpi4u7l-14" value="_" style="text;html=1;strokeColor=none;fillColor=none;align=center;verticalAlign=middle;whiteSpace=wrap;rounded=0;" vertex="1" parent="1">
          <mxGeometry x="-570" y="-582.55" width="62.5" height="30" as="geometry" />
        </mxCell>
        <mxCell id="JKWGzGi_94vPlRpi4u7l-15" style="edgeStyle=orthogonalEdgeStyle;rounded=0;orthogonalLoop=1;jettySize=auto;html=1;exitX=1;exitY=0.5;exitDx=0;exitDy=0;" edge="1" parent="1" source="JKWGzGi_94vPlRpi4u7l-16">
          <mxGeometry relative="1" as="geometry">
            <mxPoint x="-540" y="-547.55" as="targetPoint" />
          </mxGeometry>
        </mxCell>
        <mxCell id="JKWGzGi_94vPlRpi4u7l-16" value="&lt;div&gt;GPS previous&lt;/div&gt;&lt;div&gt;Time &lt;/div&gt;" style="whiteSpace=wrap;html=1;aspect=fixed;" vertex="1" parent="1">
          <mxGeometry x="-660" y="-575.05" width="55" height="55" as="geometry" />
        </mxCell>
        <mxCell id="JKWGzGi_94vPlRpi4u7l-17" value="Crystal ticks (deltaT)" style="text;html=1;strokeColor=none;fillColor=none;align=center;verticalAlign=middle;whiteSpace=wrap;rounded=0;" vertex="1" parent="1">
          <mxGeometry x="-510" y="-520.05" width="60" height="30" as="geometry" />
        </mxCell>
        <mxCell id="JKWGzGi_94vPlRpi4u7l-18" value="NODE (python-mesh)" style="rounded=0;whiteSpace=wrap;html=1;" vertex="1" parent="1">
          <mxGeometry x="-350" y="-281.29999999999995" width="90" height="50" as="geometry" />
        </mxCell>
        <mxCell id="JKWGzGi_94vPlRpi4u7l-19" style="edgeStyle=orthogonalEdgeStyle;rounded=0;orthogonalLoop=1;jettySize=auto;html=1;exitX=1;exitY=0.5;exitDx=0;exitDy=0;entryX=0;entryY=0.5;entryDx=0;entryDy=0;" edge="1" parent="1" source="JKWGzGi_94vPlRpi4u7l-20" target="JKWGzGi_94vPlRpi4u7l-24">
          <mxGeometry relative="1" as="geometry" />
        </mxCell>
        <mxCell id="JKWGzGi_94vPlRpi4u7l-20" value="" style="ellipse;whiteSpace=wrap;html=1;aspect=fixed;" vertex="1" parent="1">
          <mxGeometry x="-537.5" y="-271.29999999999995" width="30" height="30" as="geometry" />
        </mxCell>
        <mxCell id="JKWGzGi_94vPlRpi4u7l-21" value="+" style="text;html=1;strokeColor=none;fillColor=none;align=center;verticalAlign=middle;whiteSpace=wrap;rounded=0;" vertex="1" parent="1">
          <mxGeometry x="-570" y="-292.54999999999995" width="62.5" height="30" as="geometry" />
        </mxCell>
        <mxCell id="JKWGzGi_94vPlRpi4u7l-22" style="edgeStyle=orthogonalEdgeStyle;rounded=0;orthogonalLoop=1;jettySize=auto;html=1;entryX=0.5;entryY=1;entryDx=0;entryDy=0;exitX=0.25;exitY=1;exitDx=0;exitDy=0;" edge="1" parent="1" source="JKWGzGi_94vPlRpi4u7l-24" target="JKWGzGi_94vPlRpi4u7l-20">
          <mxGeometry relative="1" as="geometry" />
        </mxCell>
        <mxCell id="JKWGzGi_94vPlRpi4u7l-23" style="edgeStyle=orthogonalEdgeStyle;rounded=0;orthogonalLoop=1;jettySize=auto;html=1;exitX=1;exitY=0.5;exitDx=0;exitDy=0;entryX=0;entryY=0.5;entryDx=0;entryDy=0;" edge="1" parent="1" source="JKWGzGi_94vPlRpi4u7l-24" target="JKWGzGi_94vPlRpi4u7l-18">
          <mxGeometry relative="1" as="geometry" />
        </mxCell>
        <mxCell id="JKWGzGi_94vPlRpi4u7l-24" value="Time" style="whiteSpace=wrap;html=1;aspect=fixed;" vertex="1" parent="1">
          <mxGeometry x="-447.5" y="-282.54999999999995" width="52.5" height="52.5" as="geometry" />
        </mxCell>
        <mxCell id="JKWGzGi_94vPlRpi4u7l-25" value="Crystal ticks =&amp;nbsp; Crystal ticks *(1 + (Crystal PPM/1000000))" style="rounded=0;whiteSpace=wrap;html=1;" vertex="1" parent="1">
          <mxGeometry x="-590" y="-472.54999999999995" width="130" height="60" as="geometry" />
        </mxCell>
        <mxCell id="JKWGzGi_94vPlRpi4u7l-26" style="edgeStyle=orthogonalEdgeStyle;rounded=0;orthogonalLoop=1;jettySize=auto;html=1;exitX=1;exitY=0.5;exitDx=0;exitDy=0;entryX=0;entryY=0.5;entryDx=0;entryDy=0;" edge="1" parent="1" source="JKWGzGi_94vPlRpi4u7l-27" target="JKWGzGi_94vPlRpi4u7l-25">
          <mxGeometry relative="1" as="geometry" />
        </mxCell>
        <mxCell id="JKWGzGi_94vPlRpi4u7l-27" value="Crystal PPM" style="rounded=0;whiteSpace=wrap;html=1;" vertex="1" parent="1">
          <mxGeometry x="-660" y="-462.54999999999995" width="50" height="40" as="geometry" />
        </mxCell>
        <mxCell id="JKWGzGi_94vPlRpi4u7l-28" value="" style="endArrow=classic;html=1;rounded=0;exitX=0.5;exitY=0;exitDx=0;exitDy=0;entryX=1;entryY=0.5;entryDx=0;entryDy=0;" edge="1" parent="1" source="JKWGzGi_94vPlRpi4u7l-18" target="JKWGzGi_94vPlRpi4u7l-11">
          <mxGeometry width="50" height="50" relative="1" as="geometry">
            <mxPoint x="-300" y="-360.04999999999995" as="sourcePoint" />
            <mxPoint x="-250" y="-410.04999999999995" as="targetPoint" />
            <Array as="points">
              <mxPoint x="-305" y="-655" />
            </Array>
          </mxGeometry>
        </mxCell>
        <mxCell id="JKWGzGi_94vPlRpi4u7l-29" value="timestamp request" style="text;html=1;align=center;verticalAlign=middle;resizable=0;points=[];autosize=1;strokeColor=none;fillColor=none;" vertex="1" parent="1">
          <mxGeometry x="-410" y="-682.55" width="120" height="30" as="geometry" />
        </mxCell>
        <mxCell id="JKWGzGi_94vPlRpi4u7l-30" value="" style="endArrow=classic;html=1;rounded=0;" edge="1" parent="1">
          <mxGeometry width="50" height="50" relative="1" as="geometry">
            <mxPoint x="-730" y="-440.04999999999995" as="sourcePoint" />
            <mxPoint x="-660" y="-440.04999999999995" as="targetPoint" />
          </mxGeometry>
        </mxCell>
        <mxCell id="JKWGzGi_94vPlRpi4u7l-31" value="&lt;div&gt;assigned on&amp;nbsp;&lt;/div&gt;&lt;div&gt;initialisation&lt;/div&gt;" style="text;html=1;align=center;verticalAlign=middle;resizable=0;points=[];autosize=1;strokeColor=none;fillColor=none;" vertex="1" parent="1">
          <mxGeometry x="-760" y="-480.04999999999995" width="90" height="40" as="geometry" />
        </mxCell>
        <mxCell id="JKWGzGi_94vPlRpi4u7l-32" value="" style="endArrow=classic;html=1;rounded=0;entryX=0.5;entryY=1;entryDx=0;entryDy=0;" edge="1" parent="1" target="JKWGzGi_94vPlRpi4u7l-24">
          <mxGeometry width="50" height="50" relative="1" as="geometry">
            <mxPoint x="-421" y="-160" as="sourcePoint" />
            <mxPoint x="-410" y="-6" as="targetPoint" />
          </mxGeometry>
        </mxCell>
        <mxCell id="JKWGzGi_94vPlRpi4u7l-33" value="corrected with Parent&#39;s beacon" style="text;html=1;align=center;verticalAlign=middle;resizable=0;points=[];autosize=1;strokeColor=none;fillColor=none;" vertex="1" parent="1">
          <mxGeometry x="-520" y="-160" width="190" height="30" as="geometry" />
        </mxCell>
        <mxCell id="JKWGzGi_94vPlRpi4u7l-34" value="" style="endArrow=classic;html=1;rounded=0;entryX=0.5;entryY=0;entryDx=0;entryDy=0;" edge="1" parent="1" target="JKWGzGi_94vPlRpi4u7l-11">
          <mxGeometry width="50" height="50" relative="1" as="geometry">
            <mxPoint x="-522" y="-720" as="sourcePoint" />
            <mxPoint x="-540" y="-780" as="targetPoint" />
          </mxGeometry>
        </mxCell>
        <mxCell id="JKWGzGi_94vPlRpi4u7l-35" value="PC" style="text;html=1;align=center;verticalAlign=middle;resizable=0;points=[];autosize=1;strokeColor=none;fillColor=none;" vertex="1" parent="1">
          <mxGeometry x="-537.5" y="-750" width="40" height="30" as="geometry" />
        </mxCell>
      </root>
    </mxGraphModel>
  </diagram>
</mxfile>
